<?xml version="1.0" encoding="UTF-8"?><svg id="Layer_1" xmlns="http://www.w3.org/2000/svg" width="64.19" height="57.27" viewBox="0 0 64.19 57.27"><path d="M64.19,57.27H21.83C9.79,57.27,0,47.48,0,35.45V0H28.29c19.8,0,35.91,16.11,35.91,35.91v21.37Z" style="fill:#1c75bc;"/><path d="M33.56,41.26c-.34-1.22-1.22-2.15-2.3-2.63l1.02-5.31c.31-.03,.63-.08,.95-.17,1.65-.46,2.85-1.7,3.38-3.2l9.27,.62c.61,2.18,2.9,3.46,5.09,2.85s3.47-2.91,2.86-5.09-2.9-3.47-5.09-2.86c-1.5,.42-2.55,1.62-2.88,3.04l-8.97-.58c-.03-.33-.07-.64-.16-.96-.72-2.55-3.3-4.06-5.85-3.53l-4.22-7.64c1.46-.96,2.23-2.78,1.74-4.56-.62-2.19-2.91-3.47-5.09-2.86s-3.47,2.9-2.86,5.09c.54,1.91,2.34,3.13,4.25,2.99l4.3,7.8c-1.62,1.17-2.44,3.23-1.94,5.27l-11.02,3.63c-1.01-1.04-2.55-1.53-4.06-1.11-2.19,.61-3.47,2.9-2.85,5.09s2.9,3.47,5.09,2.86,3.4-2.8,2.89-4.95l10.91-3.6c.6,.74,1.39,1.28,2.27,1.59l-1,5.22c-.26,.03-.52,.06-.78,.13-2.19,.61-3.47,2.9-2.85,5.1s2.9,3.47,5.09,2.85,3.47-2.9,2.85-5.1h0Zm0,0" style="fill:#fff;"/></svg>