<?xml version="1.0" encoding="UTF-8"?><svg id="Layer_1" xmlns="http://www.w3.org/2000/svg" width="63.49" height="55.91" viewBox="0 0 63.49 55.91"><path d="M51.83,14.96c-5.44-4.67-12.49-7.5-20.23-7.5C14.42,7.46,.5,21.38,.5,38.57c0,.47,.04,4.76,.07,5.22v4.65H62.58v-4.31l.06-.34c.02-.47,.07-4.76,.07-5.22,0-15.25-10.88-23.61-10.88-23.61h0ZM8.07,43.79c-.03-.29,0-4.42,0-4.7h-2.49v-2.06h2.94s-.45,0-.45,0c.25-5.34,2.28-10.68,6.13-14.88l.16-.17,.29,.24-2.47-2.46,1.34-1.34,2.19,2.2c4.08-3.74,9.27-5.88,14.79-6.12h.31s.13,0,.13,.08v-3.16h1.7v3.08c.84,.03,1.67,.14,2.5,.26,4.74,.63,9.15,2.67,12.73,5.93l2.03-2.03,1.25,1.26-2.21,2.21,.24-.19,.2,.27c3.74,4.08,5.88,9.26,6.13,14.78h2.97v2.06h-2.95s0,4.42-.02,4.68l-47.45,.02ZM42.28,24.23s-12.42,7.8-14.37,9.74c-1.94,1.94-1.94,5.08,0,7.02,1.93,1.94,5.07,1.94,7.02,0,1.94-1.94,7.34-16.76,7.34-16.76h0Zm0,0" style="fill:#1c75bc;"/><rect width="63.49" height="55.91" style="fill:none;"/></svg>