<?xml version="1.0" encoding="UTF-8"?><svg id="Layer_1" xmlns="http://www.w3.org/2000/svg" width="49.06" height="57.75" viewBox="0 0 49.06 57.75"><path d="M44.97,0H0V53.65H44.97V0Zm-2.7,50.96" style="fill:#1c75bc;"/><rect x="7.42" y="8.71" width="30.73" height="2.84" style="fill:#fff;"/><rect x="7.42" y="17.65" width="30.73" height="2.83" style="fill:#fff;"/><path d="M43.8,4.08v2.7h2.55V55.03H6.8v-1.88h-2.72v4.59H49.06V4.08h-5.26Zm0,0" style="fill:#1c75bc;"/><path d="M8.56,38.67c.54,0,1.03-.15,1.48-.37l3.86,3.15c-.03,.15-.09,.28-.09,.44,0,1.87,1.51,3.37,3.38,3.37s3.37-1.5,3.37-3.37c0-.54-.15-1.03-.37-1.48,1.85-2.78,4.22-6.33,5.65-8.46,.21,.04,.42,.12,.65,.12,.81,0,1.53-.31,2.12-.79,1.26,.74,2.92,1.7,4.33,2.53,0,.05-.02,.07-.02,.12,0,1.87,1.51,3.38,3.38,3.38s3.37-1.51,3.37-3.38-1.52-3.37-3.37-3.37c-.83,0-1.56,.32-2.15,.81l-4.3-2.52c0-.05,.02-.1,.02-.16,0-1.87-1.5-3.37-3.36-3.37s-3.37,1.52-3.37,3.37c0,.62,.21,1.18,.51,1.68-1.78,2.67-4.09,6.13-5.53,8.31-.3-.09-.59-.19-.9-.19-.7,0-1.31,.26-1.85,.63-1.06-.88-2.39-1.95-3.58-2.93,.09-.29,.19-.59,.19-.91,0-1.87-1.52-3.37-3.38-3.37s-3.37,1.5-3.37,3.37c-.01,1.87,1.5,3.38,3.37,3.38h0Zm0,0" style="fill:#fff;"/></svg>