<?xml version="1.0" encoding="UTF-8"?><svg id="Layer_1" xmlns="http://www.w3.org/2000/svg" width="55.87" height="55.87" viewBox="0 0 55.87 55.87"><path d="M47.43,0H8.45C3.79,0,0,3.79,0,8.45V47.43c0,4.66,3.79,8.45,8.45,8.45H47.43c4.66,0,8.45-3.79,8.45-8.45V8.45c0-4.66-3.79-8.45-8.45-8.45Zm2.46,26.94c0,.55-.45,1-1,1s-1-.45-1-1v-6.57l-13.8,13.8c.52,.79,.83,1.73,.83,2.75,0,2.75-2.24,4.99-4.99,4.99s-4.99-2.24-4.99-4.99c0-1.01,.31-1.96,.83-2.75l-10.06-10.06c-.79,.52-1.73,.83-2.75,.83s-1.96-.31-2.75-.83l-6.53,6.53-1.41-1.41,6.53-6.53c-.52-.79-.83-1.73-.83-2.75,0-2.75,2.24-4.99,4.99-4.99s4.99,2.24,4.99,4.99c0,1.01-.31,1.96-.83,2.75l10.06,10.06c.79-.52,1.73-.83,2.75-.83s1.96,.31,2.75,.83l13.8-13.8h-6.57c-.55,0-1-.45-1-1s.45-1,1-1h9.98v9.98Z" style="fill:#1c75bc;"/></svg>