<?xml version="1.0" encoding="utf-8"?>
<!-- Generator: Adobe Illustrator 27.7.0, SVG Export Plug-In . SVG Version: 6.00 Build 0)  -->
<svg version="1.1" id="Layer_1" xmlns="http://www.w3.org/2000/svg" xmlns:xlink="http://www.w3.org/1999/xlink" x="0px" y="0px"
	 viewBox="0 0 800 800" style="enable-background:new 0 0 800 800;" xml:space="preserve">
<style type="text/css">
	.st0{fill:#E44300;}
</style>
<path class="st0" d="M400,733.3c-0.8,0-1.6,0-2.3-0.1c0,0,0,0-0.1,0c-3.3-0.2-6.4-0.9-9.3-2c-4.3-1.6-8.3-4.2-11.8-7.6L243.1,590.2
	c-13-13-13-34.1,0-47.1c13-13,34.1-13,47.1,0l76.4,76.4V300c0-18.4,14.9-33.3,33.3-33.3s33.3,14.9,33.3,33.3v319.5l76.4-76.4
	c13-13,34.1-13,47.1,0s13,34.1,0,47.1L423.6,723.6c-3.5,3.5-7.5,6-11.8,7.6c-2.9,1.1-6.1,1.8-9.3,2c0,0,0,0-0.1,0
	C401.6,733.3,400.8,733.3,400,733.3z M700,466.7c-18.4,0-33.3-14.9-33.3-33.3V400c0-71.2-27.7-138.2-78.1-188.6
	c-50.4-50.4-117.3-78.1-188.6-78.1s-138.2,27.7-188.6,78.1c-50.4,50.4-78.1,117.3-78.1,188.6v33.3c0,18.4-14.9,33.3-33.3,33.3
	s-33.3-14.9-33.3-33.3V400c0-45,8.8-88.6,26.2-129.8c16.8-39.7,40.8-75.3,71.4-105.9c30.6-30.6,66.2-54.6,105.9-71.4
	C311.4,75.5,355,66.7,400,66.7c45,0,88.6,8.8,129.8,26.2c39.7,16.8,75.3,40.8,105.9,71.4c30.6,30.6,54.6,66.2,71.4,105.9
	c17.4,41.1,26.2,84.8,26.2,129.8v33.3C733.3,451.7,718.4,466.7,700,466.7z"/>
</svg>
