<?xml version="1.0" encoding="utf-8"?>
<!-- Generator: Adobe Illustrator 27.7.0, SVG Export Plug-In . SVG Version: 6.00 Build 0)  -->
<svg version="1.1" id="Layer_1" xmlns="http://www.w3.org/2000/svg" xmlns:xlink="http://www.w3.org/1999/xlink" x="0px" y="0px"
	 viewBox="0 0 800 800" style="enable-background:new 0 0 800 800;" xml:space="preserve">
<style type="text/css">
	.st0{fill:#00C53A;}
</style>
<path class="st0" d="M400,733.3c-45,0-88.6-8.8-129.8-26.2c-39.7-16.8-75.3-40.8-105.9-71.4c-30.6-30.6-54.6-66.2-71.4-105.9
	C75.5,488.6,66.7,445,66.7,400v-33.3c0-18.4,14.9-33.3,33.3-33.3s33.3,14.9,33.3,33.3V400c0,71.2,27.7,138.2,78.1,188.6
	c50.4,50.4,117.3,78.1,188.6,78.1s138.2-27.7,188.6-78.1c50.4-50.4,78.1-117.3,78.1-188.6v-33.3c0-18.4,14.9-33.3,33.3-33.3
	s33.3,14.9,33.3,33.3V400c0,45-8.8,88.6-26.2,129.8c-16.8,39.7-40.8,75.3-71.4,105.9c-30.6,30.6-66.2,54.6-105.9,71.4
	C488.6,724.5,445,733.3,400,733.3z M400,533.3c-18.4,0-33.3-14.9-33.3-33.3V180.5l-76.4,76.4c-13,13-34.1,13-47.1,0
	c-13-13-13-34.1,0-47.1L376.4,76.4c3.5-3.5,7.5-6,11.8-7.6c2.9-1.1,6.1-1.8,9.3-2c0,0,0,0,0.1,0c1.6-0.1,3.1-0.1,4.7,0
	c0,0,0,0,0.1,0c3.3,0.2,6.4,0.9,9.3,2c4.3,1.6,8.3,4.2,11.8,7.6l133.3,133.3c13,13,13,34.1,0,47.1c-13,13-34.1,13-47.1,0l-76.4-76.4
	V500C433.3,518.4,418.4,533.3,400,533.3z"/>
</svg>
