<?xml version="1.0" encoding="utf-8"?>
<!-- Generator: Adobe Illustrator 26.0.2, SVG Export Plug-In . SVG Version: 6.00 Build 0)  -->
<svg version="1.1" id="logo" xmlns="http://www.w3.org/2000/svg" xmlns:xlink="http://www.w3.org/1999/xlink" x="0px" y="0px"
	 viewBox="0 0 425 289" style="enable-background:new 0 0 425 289;" xml:space="preserve">
<style type="text/css">
	.st0{fill:#1B75BB;}
	.st1{fill:#FFFFFF;}
</style>
<g>
	<path class="st0" d="M372.2,287H161.4c-59.9,0-108.6-48.7-108.6-108.6V2h140.8c98.5,0,178.7,80.2,178.7,178.7V287z"/>
	<g>
		<path class="st1" d="M219.8,207.3c-1.7-6.1-6.1-10.7-11.4-13.1l5.1-26.4c1.6-0.2,3.2-0.4,4.7-0.9c8.2-2.3,14.2-8.4,16.8-15.9
			l46.1,3.1c3.1,10.9,14.4,17.2,25.3,14.2c10.9-3.1,17.3-14.5,14.2-25.3c-3.1-10.9-14.4-17.3-25.3-14.2c-7.5,2.1-12.7,8.1-14.3,15.1
			l-44.7-2.9c-0.1-1.6-0.4-3.2-0.8-4.8c-3.6-12.7-16.4-20.2-29.1-17.5l-21-38c7.3-4.8,11.1-13.8,8.6-22.7
			c-3.1-10.9-14.5-17.3-25.3-14.2c-10.9,3.1-17.3,14.4-14.2,25.3c2.7,9.5,11.7,15.6,21.1,14.9l21.4,38.8
			c-8.1,5.8-12.2,16.1-9.7,26.2l-54.9,18c-5-5.2-12.7-7.6-20.2-5.5c-10.9,3.1-17.3,14.4-14.2,25.3c3.1,10.9,14.4,17.3,25.3,14.2
			c10.7-3,16.9-13.9,14.4-24.6l54.3-17.9c3,3.7,6.9,6.4,11.3,7.9l-5,26c-1.3,0.2-2.6,0.3-3.9,0.7c-10.9,3.1-17.3,14.4-14.2,25.4
			c3.1,10.9,14.4,17.3,25.3,14.2C216.5,229.6,222.9,218.2,219.8,207.3L219.8,207.3z M219.8,207.3"/>
	</g>
</g>
</svg>
