<?xml version="1.0" encoding="utf-8"?>
<!-- Generator: Adobe Illustrator 26.5.0, SVG Export Plug-In . SVG Version: 6.00 Build 0)  -->
<svg version="1.1" id="Layer_1" xmlns="http://www.w3.org/2000/svg" xmlns:xlink="http://www.w3.org/1999/xlink" x="0px" y="0px"
	 viewBox="0 0 437.5 127.7" style="enable-background:new 0 0 437.5 127.7;" xml:space="preserve">
<style type="text/css">
	.st0{enable-background:new    ;}
	.st1{fill:#1C75BC;}
	.st2{fill:#1C75BC;stroke:#FFFFFF;stroke-width:2;stroke-miterlimit:10;}
	.st3{fill:#FFFFFF;}
</style>
<g class="st0">
	<path class="st1" d="M101.9,110l23.5-55.6l22.5,55.6h-5.3l-6.8-18.1h-21.8l-7.1,18.1H101.9z M115.5,87.8h18.6L125,64.5L115.5,87.8z
		"/>
	<path class="st1" d="M155.3,110V56.6h4.9v48.9h18.3v4.6H155.3z"/>
	<path class="st1" d="M187.5,110V56.6h4.9V110H187.5z"/>
</g>
<g class="st0">
	<path class="st1" d="M207.4,110V56.6h8.3c7.4,0,12.7,0.4,15.8,1.1c3.1,0.7,5.8,2,8,3.8c3,2.4,5.2,5.4,6.8,9.1
		c1.6,3.7,2.3,8,2.3,12.8s-0.8,9.1-2.3,12.8c-1.6,3.7-3.8,6.7-6.7,9c-2.3,1.8-5,3-7.9,3.8c-3,0.8-7.8,1.1-14.3,1.1h-1.6H207.4z
		 M212.2,105.8h6.8c5.5,0,9.4-0.3,11.8-0.9c2.3-0.6,4.3-1.7,5.9-3.2c2.2-2.1,3.9-4.7,5.1-7.8c1.1-3.1,1.7-6.7,1.7-10.7
		c0-4.1-0.6-7.7-1.7-10.8s-2.9-5.7-5.1-7.7c-1.7-1.5-3.8-2.6-6.2-3.2c-2.5-0.6-6.8-0.9-12.9-0.9h-0.9h-4.3V105.8z"/>
</g>
<g class="st0">
	<path class="st1" d="M252.3,110l23.5-55.6l22.5,55.6H293l-6.8-18.1h-21.8l-7.1,18.1H252.3z M266,87.8h18.6l-9.1-23.2L266,87.8z"/>
	<path class="st1" d="M307.1,110V61.1h-14.7v-4.6h34.3v4.6H312V110H307.1z"/>
</g>
<g class="st0">
	<path class="st1" d="M390.9,83.4c0,3.8-0.7,7.4-2.2,10.8s-3.5,6.4-6.2,9.1c-2.8,2.7-5.9,4.7-9.3,6.1c-3.5,1.4-7.1,2.1-11,2.1
		s-7.5-0.7-10.9-2.1c-3.4-1.4-6.5-3.4-9.3-6.1c-2.7-2.7-4.8-5.7-6.2-9.1c-1.4-3.4-2.1-6.9-2.1-10.7c0-3.8,0.7-7.4,2.1-10.8
		s3.5-6.4,6.2-9.1c2.7-2.7,5.7-4.7,9.2-6c3.4-1.4,7.1-2,11-2c3.9,0,7.6,0.7,11.1,2.1c3.4,1.4,6.5,3.4,9.2,6c2.7,2.7,4.8,5.7,6.2,9.1
		C390.2,76,390.9,79.6,390.9,83.4z M362.3,107.1c3.2,0,6.2-0.6,9-1.8c2.8-1.2,5.4-2.9,7.6-5.1c2.2-2.3,3.9-4.8,5.1-7.7
		c1.2-2.9,1.8-5.9,1.8-9.1c0-3.2-0.6-6.2-1.8-9.1s-2.9-5.4-5.1-7.7c-2.2-2.2-4.7-3.9-7.6-5.1c-2.8-1.2-5.9-1.8-9-1.8
		c-3.2,0-6.1,0.6-8.9,1.8s-5.3,2.9-7.6,5.1c-2.2,2.3-3.9,4.9-5.1,7.7c-1.2,2.8-1.8,5.9-1.8,9.1c0,3.2,0.6,6.2,1.8,9.1
		c1.2,2.9,2.9,5.4,5.1,7.7c2.2,2.3,4.7,4,7.5,5.1C356,106.5,359,107.1,362.3,107.1z"/>
	<path class="st1" d="M435.6,110h-5.9l-18.8-25.5H408V110h-4.9V56.6h9.8c5.8,0,10.1,1.2,13,3.6c2.9,2.4,4.3,6.1,4.3,10.9
		c0,4.2-1.2,7.4-3.7,9.8s-5.9,3.6-10.2,3.6L435.6,110z M408,60.8v19.7h4.9c4.5,0,7.7-0.7,9.5-2.2c1.8-1.4,2.7-3.9,2.7-7.4
		c0-3.7-0.9-6.3-2.8-7.8c-1.8-1.6-5-2.3-9.4-2.3H408z"/>
</g>
<polyline class="st1" points="75.8,105.8 25.7,105.8 25.7,50.7 33.4,42.5 79.8,42.5 95,29.8 25.5,29.8 14.1,42 14.1,118.5 
	84.3,118.5 95.1,107.9 95.1,57.6 83.5,73.1 83.5,98.5 "/>
<path class="st2" d="M11.6,47.6L2.7,58.1l48.2,58.4l77.4-101.8L126.2,4L50.9,71.9L11.6,47.6z"/>
<path class="st3" d="M51,119.9L0,58.1l11.1-13.2l39.6,24.4L127.5,0l3,15.2L51,119.9z M5.5,58.2l45.4,54.9L126,14.2l-1.2-6.1
	L51.2,74.5L12.1,50.3L5.5,58.2z"/>
</svg>
