<?xml version="1.0" encoding="UTF-8"?><svg id="Layer_1" xmlns="http://www.w3.org/2000/svg" width="46.37" height="57.48" viewBox="0 0 46.37 57.48"><path d="M41.16,41.01H20.58c-.4,0-.72-.32-.72-.72v-11.56c0-.4,.32-.72,.72-.72h20.58V14.85h-14.26c-.33,0-.6-.27-.6-.6V0H5.09C2.28,0,0,2.28,0,5.09V52.39c0,2.81,2.28,5.09,5.09,5.09h30.97c2.81,0,5.09-2.28,5.09-5.09v-11.37Z" style="fill:#1c75bc; fill-rule:evenodd;"/><polygon points="27.5 .6 40.56 13.66 27.5 13.66 27.5 .6" style="fill:#1c75bc; fill-rule:evenodd;"/><rect x="20.75" y="29.06" width="25.62" height="11.04" rx=".26" ry=".26" style="fill:#1c75bc;"/><g><path d="M24.26,38.1l2.92-6.92,2.8,6.92h-.66l-.85-2.26h-2.72l-.88,2.26h-.61Zm1.7-2.77h2.32l-1.14-2.9-1.18,2.9Z" style="fill:#fff;"/><path d="M31.48,38.1v-6.66h1.21c.48,0,.83,.03,1.06,.08,.23,.05,.42,.14,.59,.25,.21,.15,.37,.36,.49,.62,.12,.26,.17,.56,.17,.88,0,.63-.18,1.1-.53,1.39-.35,.3-.92,.44-1.68,.44h-.7v2.99h-.6Zm.6-3.52h.41c.73,0,1.23-.09,1.48-.28,.25-.19,.38-.51,.38-.98,0-.2-.03-.38-.09-.54-.06-.17-.14-.31-.26-.44-.12-.13-.28-.23-.48-.28s-.55-.08-1.03-.08h-.41v2.61Z" style="fill:#fff;"/><path d="M42.23,32.66c-.33-.28-.67-.5-1.01-.63-.35-.14-.71-.2-1.09-.2-.86,0-1.56,.27-2.1,.82-.54,.55-.81,1.26-.81,2.13,0,.44,.07,.84,.2,1.19s.33,.66,.6,.94c.27,.27,.57,.47,.92,.61,.34,.14,.71,.21,1.11,.21s.75-.06,1.12-.2c.36-.13,.71-.32,1.03-.58v.71c-.33,.2-.67,.35-1.04,.46-.36,.11-.73,.16-1.08,.16-.48,0-.94-.09-1.38-.26s-.82-.42-1.13-.73c-.32-.32-.57-.69-.74-1.12-.17-.42-.25-.89-.25-1.4s.09-.96,.26-1.39,.42-.8,.74-1.11c.31-.31,.69-.55,1.13-.72s.9-.26,1.38-.26c.42,0,.82,.06,1.18,.17,.36,.12,.69,.29,.99,.53v.67Z" style="fill:#fff;"/></g></svg>