<?xml version="1.0" encoding="UTF-8"?><svg id="Layer_1" xmlns="http://www.w3.org/2000/svg" width="52.31" height="52.31" viewBox="0 0 52.31 52.31"><path d="M43.82,9.76c0,5.38-9.8,9.76-21.9,9.76S0,15.14,0,9.76,9.81,0,21.92,0s21.9,4.37,21.9,9.76h0Zm0,0" style="fill:#1c75bc;"/><path d="M26.99,45.57c-1.55-.39-2.69-1.64-2.98-3.18-.69,.03-1.4,.05-2.1,.05-12.1,0-21.92-4.36-21.92-9.75v7.46c0,5.39,9.81,9.76,21.92,9.76,1.74,0,3.42-.1,5.05-.28-.7-1.25-.73-2.79,.03-4.05h0Zm0,0" style="fill:#1c75bc;"/><path d="M21.92,39.77c.68,0,1.36-.02,2.03-.05v-1.12c0-1.87,1.27-3.48,3.06-3.93-.47-.79-.64-1.7-.53-2.57-1.47,.14-3,.21-4.56,.21C9.81,32.31,0,27.95,0,22.57v7.45c.01,5.39,9.81,9.76,21.92,9.76h0Zm0,0" style="fill:#1c75bc;"/><path d="M21.92,29.64c2.17,0,4.24-.15,6.22-.41l1.64-1.64c.78-.78,1.82-1.19,2.86-1.19,.7,0,1.42,.19,2.05,.55,.46-1.76,2.06-3.02,3.92-3.02h3.04c.06,0,.11,0,.17,0,1.28-1.24,2.01-2.61,2.01-4.07v-7.46c0,5.39-9.8,9.75-21.9,9.75S.01,17.82,.01,12.43v7.46C.01,25.28,9.81,29.64,21.92,29.64h0Zm0,0" style="fill:#1c75bc;"/><path d="M52.31,41.64v-3.04l-3.62-.6c-.21-.85-.54-1.66-.99-2.4l2.11-3-2.15-2.15-2.97,2.13c-.74-.45-1.55-.79-2.41-1l-.63-3.6h-3.04l-.59,3.59c-.86,.21-1.68,.54-2.42,.99l-2.96-2.11-2.15,2.15,2.08,2.98c-.45,.74-.79,1.56-1.01,2.42l-3.57,.6v3.04l3.57,.63c.22,.87,.55,1.68,1.01,2.43l-2.11,2.95,2.15,2.15,2.98-2.09c.75,.46,1.56,.79,2.42,1l.6,3.59h3.04l.64-3.6c.85-.22,1.66-.55,2.4-1.01l3,2.11,2.15-2.15-2.14-2.98c.45-.74,.78-1.54,.99-2.4l3.62-.63Zm-12.16,2.74c-2.34,0-4.23-1.89-4.23-4.23s1.9-4.23,4.23-4.23,4.23,1.9,4.23,4.23-1.89,4.23-4.23,4.23h0Zm0,0" style="fill:#1c75bc;"/></svg>