<?xml version="1.0" encoding="UTF-8"?><svg id="Layer_1" xmlns="http://www.w3.org/2000/svg" width="62.2" height="40.98" viewBox="0 0 62.2 40.98"><path d="M51.33,7.5C45.88,2.83,38.83,0,31.1,0,13.92,0,0,13.92,0,31.11c0,.47,.04,4.76,.07,5.22v4.65H62.08v-4.31l.06-.34c.02-.47,.07-4.76,.07-5.22,0-15.25-10.88-23.61-10.88-23.61h0ZM7.57,36.33c-.03-.29,0-4.42,0-4.7h-2.49v-2.06h2.94s-.45,0-.45,0c.25-5.34,2.28-10.68,6.13-14.88l.16-.17,.29,.24-2.47-2.46,1.34-1.34,2.19,2.2c4.08-3.74,9.27-5.88,14.79-6.12h.31s.13,0,.13,.08V3.98h1.7v3.08c.84,.03,1.67,.14,2.5,.26,4.74,.63,9.15,2.67,12.73,5.93l2.03-2.03,1.25,1.26-2.21,2.21,.24-.19,.2,.27c3.74,4.08,5.88,9.26,6.13,14.78h2.97v2.06h-2.95s0,4.42-.02,4.68l-47.45,.02ZM41.78,16.76s-12.42,7.8-14.37,9.74c-1.94,1.94-1.94,5.08,0,7.02,1.93,1.94,5.07,1.94,7.02,0,1.94-1.94,7.34-16.76,7.34-16.76h0Zm0,0" style="fill:#1c75bc;"/></svg>