<?xml version="1.0" encoding="UTF-8"?><svg id="Layer_1" xmlns="http://www.w3.org/2000/svg" width="61.18" height="58.3" viewBox="0 0 61.18 58.3"><path d="M3.04,1.57h29.75c13.22,0,23.95,10.73,23.95,23.95v29.75c0,1.68-1.36,3.04-3.04,3.04H4.89c-2.7,0-4.89-2.19-4.89-4.89V4.61C0,2.93,1.36,1.57,3.04,1.57Z" style="fill:#1c75bc;"/><g><polygon points="7.33 25.98 11.67 20.83 27.6 30.69 58.44 2.88 59.57 8.6 27.68 50.57 7.33 25.98" style="fill:#fff;"/><path d="M57.48,5.77l.49,2.47L27.63,48.16,9.29,25.98l2.69-3.19,15.79,9.77L57.48,5.77m1.91-5.77l-3.92,3.54L27.44,28.82l-13.88-8.58-2.2-1.36-1.67,1.98-2.69,3.19-1.61,1.92,1.6,1.93,18.34,22.17,2.41,2.91,2.29-3.01L60.36,10.05l.82-1.08-.26-1.32-.49-2.47-1.03-5.18h0Z" style="fill:#1c75bc;"/></g></svg>